<?xml version="1.0" encoding="UTF-8"?>
<!DOCTYPE svg PUBLIC "-//W3C//DTD SVG 1.1//EN" "http://www.w3.org/Graphics/SVG/1.1/DTD/svg11.dtd">
<!-- Creator: CorelDRAW X7 -->
<svg xmlns="http://www.w3.org/2000/svg" xml:space="preserve" width="132.356mm" height="58.3389mm" version="1.1" style="shape-rendering:geometricPrecision; text-rendering:geometricPrecision; image-rendering:optimizeQuality; fill-rule:evenodd; clip-rule:evenodd"
viewBox="0 0 14108 6218"
 xmlns:xlink="http://www.w3.org/1999/xlink">
 <defs>
  <style type="text/css">
   <![CDATA[
    .str0 {stroke:#E31E24;stroke-width:8.12202}
    .fil2 {fill:none;fill-rule:nonzero}
    .fil1 {fill:#E31E24;fill-rule:nonzero}
    .fil0 {fill:#E2001A;fill-rule:nonzero}
   ]]>
  </style>
    <mask id="id0">
  <linearGradient id="id1" gradientUnits="userSpaceOnUse" x1="4371.15" y1="5327.49" x2="5352.32" y2="5215.45">
   <stop offset="0" style="stop-opacity:1; stop-color:white"/>
   <stop offset="1" style="stop-opacity:0; stop-color:white"/>
  </linearGradient>
     <rect style="fill:url(#id1)" x="-4" y="4321" width="9732" height="1902"/>
    </mask>
 </defs>
 <g id="Layer_x0020_1">
  <metadata id="CorelCorpID_0Corel-Layer"/>
  <g id="_1509165077936">
   <g>
    <path class="fil0" d="M11055 3265c16,-7 32,-15 48,-24 -16,8 -33,16 -49,24 0,0 0,0 1,0z"/>
   </g>
   <path class="fil0" d="M5705 4078c606,-76 1211,0 1771,214 74,-142 187,-266 339,-372 221,-154 558,-232 1009,-232 65,0 126,2 185,5l0 0c0,0 823,19 1647,-266 134,-46 268,-99 399,-162 -1,0 -1,0 -1,0 16,-8 33,-16 49,-24 204,-101 399,-227 568,-386l0 0c35,-35 66,-71 95,-108 155,-199 261,-400 317,-604 132,-502 -18,-890 -451,-1165 -433,-274 -1105,-412 -2018,-412 -912,0 -1650,138 -2215,412 -564,275 -912,663 -1044,1165 -56,204 -54,405 7,604 61,199 214,372 459,518 -392,159 -714,355 -967,698 58,-383 42,-751 -217,-1063 -146,-175 -374,-315 -685,-420 -310,-104 -733,-157 -1269,-157 -151,0 -299,6 -445,16 -146,11 -294,29 -444,55l381 -926 2765 0c37,0 66,-13 85,-39l183 -737c19,-37 -9,-55 -85,-55l-4331 0c-38,0 -66,13 -85,39l-1143 2769c-19,37 10,55 85,55l1580 0c28,0 52,-5 71,-16 141,-94 268,-173 381,-239 113,-65 291,-98 536,-98 235,0 414,38 536,114 122,76 205,169 247,278 42,110 59,228 49,353 -9,126 -28,238 -56,338 -19,94 -56,208 -113,341 -34,80 -77,157 -129,233 154,-97 313,-187 477,-268 464,-229 963,-393 1477,-458zm2442 -1919l0 0c28,-94 71,-187 127,-279 56,-91 136,-173 240,-247 103,-73 228,-132 374,-176 145,-45 317,-67 515,-67 197,0 360,22 486,67 127,44 224,103 290,176 65,74 106,156 120,247 14,92 7,185 -22,279 -47,199 -167,366 -359,502 -193,136 -487,204 -882,204 -405,0 -666,-68 -783,-204 -118,-136 -153,-303 -106,-502z"/>
   <path class="fil0" style="mask:url(#id0)" d="M7438 4376c-243,-45 -492,-59 -710,-47 -374,21 -717,83 -1020,306 -171,126 -332,354 -477,508 -322,341 -741,494 -1199,553 -836,109 -2011,22 -2325,-930 -9,-27 -17,-54 -24,-81l-1598 0c-57,0 -85,15 -85,47 0,225 45,427 134,608 89,180 233,336 430,466 198,131 452,232 762,302 311,71 682,106 1115,106 527,0 988,-55 1383,-164 395,-110 726,-257 994,-440 268,-183 482,-393 642,-631 27,-40 52,-79 75,-120 -25,1595 3239,1534 4188,1082l-188 -704c-606,244 -2531,230 -2097,-861z"/>
   <path class="fil0" d="M11103 3241c237,-113 427,-242 568,-386l0 0c-169,159 -364,285 -568,386z"/>
   <path class="fil1" d="M9308 6067l-155 -711 116 -25c38,-8 71,-9 99,-2 27,8 50,24 68,49 18,25 32,60 42,105 6,28 9,53 10,77 0,23 -4,44 -11,62 -7,18 -18,32 -33,43l159 338 -77 17 -148 -317 -62 13 72 334 -80 17zm-8 -422l31 -6c22,-5 40,-13 52,-23 13,-10 21,-24 24,-43 3,-18 1,-42 -6,-73 -9,-41 -22,-70 -38,-86 -16,-16 -43,-20 -79,-12l-35 8 51 235zm622 255c-40,13 -74,13 -102,0 -28,-12 -52,-36 -72,-69 -19,-34 -37,-75 -52,-124l-149 -459 75 -24 149 464c10,29 20,56 32,79 11,24 24,41 39,52 16,10 34,12 56,5 22,-7 36,-19 42,-37 6,-18 6,-39 2,-65 -5,-25 -12,-53 -22,-83l-150 -463 74 -24 149 459c15,49 25,92 29,131 4,39 -2,72 -16,98 -15,27 -43,47 -84,60zm324 -115l-284 -670 74 -33 333 498 -143 -582 73 -32 304 661 -61 27 -219 -481 123 524 -43 18 -303 -443 207 486 -61 27zm535 -250l-354 -636 118 -66c23,-13 45,-21 66,-24 20,-3 40,-1 59,5 18,7 36,19 53,36 16,17 32,39 47,67 15,26 25,50 30,72 6,22 6,41 1,58 -4,17 -14,32 -29,45 23,-6 46,-5 66,1 20,7 40,20 58,38 18,18 36,43 52,73 16,27 27,54 34,79 8,25 10,49 8,70 -2,22 -9,42 -20,60 -12,18 -30,33 -52,46l-137 76zm36 -104l48 -26c32,-18 48,-39 49,-64 0,-25 -11,-58 -34,-99 -15,-27 -30,-47 -46,-62 -16,-15 -32,-24 -50,-26 -17,-2 -37,3 -58,14l-42 24 133 239zm-171 -307l43 -23c20,-12 34,-24 41,-37 8,-14 9,-29 5,-48 -4,-18 -13,-40 -27,-65 -16,-29 -31,-48 -46,-58 -14,-9 -30,-11 -47,-6 -17,5 -38,15 -62,28l-18 10 111 199zm686 101c-34,21 -66,29 -96,26 -30,-4 -59,-18 -87,-43 -27,-24 -54,-57 -79,-98l-147 -233c-26,-40 -43,-78 -53,-113 -10,-34 -9,-66 1,-94 10,-27 32,-52 65,-73 34,-21 65,-30 95,-27 29,4 57,17 84,40 27,24 54,55 79,96l148 234c25,40 43,78 53,113 10,36 10,68 1,97 -9,28 -31,53 -64,75zm-43 -68c19,-12 29,-25 33,-40 3,-16 1,-33 -6,-52 -7,-19 -18,-40 -33,-63l-170 -269c-14,-23 -28,-42 -42,-56 -13,-15 -28,-23 -43,-26 -15,-3 -31,1 -50,13 -18,11 -29,25 -33,39 -4,15 -3,32 4,51 7,18 18,39 33,62l170 269c14,23 28,42 42,57 14,15 29,24 44,27 16,4 33,0 51,-12zm554 -324l-374 -636 60 -51 566 475 -60 50 -138 -123 -92 77 97 158 -59 50zm-76 -271l74 -63 -249 -218 175 281zm678 -294l-544 -483 54 -61 490 434 100 -112 54 48 -154 174zm362 -403c-25,31 -52,49 -82,56 -30,6 -62,2 -96,-12 -34,-15 -70,-37 -107,-67l-215 -172c-38,-30 -67,-60 -87,-90 -20,-29 -30,-59 -30,-89 0,-29 13,-60 38,-91 25,-30 51,-49 80,-56 29,-6 60,-3 94,11 33,13 68,34 105,64l216 173c37,30 66,60 87,90 21,30 32,61 33,91 0,30 -12,61 -36,92zm-63 -50c14,-17 20,-34 18,-49 -2,-16 -9,-31 -22,-47 -14,-16 -31,-32 -52,-49l-248 -199c-22,-17 -41,-30 -58,-39 -18,-9 -34,-13 -50,-11 -15,2 -29,12 -43,29 -13,17 -19,33 -18,48 1,16 8,31 20,46 13,16 30,32 51,48l249 200c21,17 40,30 58,40 19,9 35,13 51,11 16,-2 31,-11 44,-28zm339 -348c-19,29 -42,47 -69,56 -28,9 -58,9 -91,2 -33,-8 -67,-23 -103,-44l19 -74c23,13 45,24 68,33 23,9 44,13 63,11 19,-1 34,-10 46,-28 11,-17 14,-35 8,-52 -6,-17 -21,-33 -44,-48 -28,-18 -53,-28 -77,-29 -23,-1 -48,1 -75,5l-144 23c-29,5 -56,4 -81,-2 -26,-6 -54,-19 -85,-39 -44,-29 -72,-62 -83,-99 -11,-37 -5,-73 18,-108 13,-20 27,-35 43,-45 16,-11 34,-17 54,-18 19,-2 41,1 64,8 24,8 50,19 77,34l-18 71c-21,-12 -41,-21 -60,-29 -19,-7 -37,-10 -53,-7 -17,2 -30,12 -41,29 -11,17 -15,33 -9,50 5,17 18,33 40,47 19,13 36,20 51,23 15,3 33,3 53,0l144 -24c33,-6 67,-6 104,-2 37,4 75,19 113,44 30,19 53,41 68,66 15,24 22,49 22,74 0,25 -7,49 -22,72zm393 -674c-14,30 -35,51 -63,61 -28,11 -61,13 -98,7 -37,-6 -76,-19 -116,-37l-223 -103c-43,-20 -80,-42 -112,-66 -32,-24 -54,-51 -66,-79 -13,-29 -11,-60 4,-94 13,-27 30,-48 51,-61 22,-13 47,-20 75,-19 29,1 61,9 95,24 1,1 3,1 5,2 2,0 3,1 5,2l-33 71c-32,-15 -58,-22 -79,-21 -21,0 -36,12 -47,35 -6,13 -6,26 0,40 6,14 18,28 37,42 18,14 44,29 76,44l101 46c-11,-13 -17,-28 -20,-45 -2,-17 1,-35 10,-54 13,-29 32,-48 55,-58 24,-9 51,-11 83,-5 32,6 67,18 106,36 39,18 74,40 102,63 29,24 48,50 59,78 10,29 8,59 -7,91zm-72 -34c7,-16 7,-30 0,-44 -7,-14 -19,-27 -36,-40 -17,-12 -36,-23 -58,-33 -26,-12 -51,-22 -74,-30 -23,-9 -43,-12 -60,-10 -17,3 -31,14 -40,34 -4,10 -6,19 -6,29 1,10 4,20 8,28 4,9 9,17 15,24l99 46c22,10 44,18 64,23 21,5 39,5 54,2 15,-4 27,-13 34,-29zm258 -400c-13,30 -31,52 -57,65 -25,13 -55,18 -88,16 -34,-3 -70,-12 -109,-27l-290 -118c-40,-16 -72,-35 -98,-56 -26,-22 -43,-46 -52,-73 -8,-26 -6,-55 6,-87 13,-31 32,-53 57,-66 24,-13 53,-18 87,-15 33,2 70,12 109,28l291 118c38,15 71,34 97,56 26,22 43,46 52,72 9,27 8,56 -5,87zm-73 -30c7,-17 6,-33 -3,-46 -9,-14 -22,-26 -40,-37 -17,-12 -36,-21 -57,-30l-292 -118c-22,-9 -43,-16 -63,-20 -21,-5 -38,-5 -54,-1 -15,4 -26,14 -33,32 -7,17 -7,33 1,47 8,13 21,26 39,36 18,11 38,21 59,30l293 119c20,8 41,14 61,19 21,4 39,4 55,0 16,-4 27,-15 34,-31zm279 -579l-679 -291 19 -77 737 49 -18 75 -185 -17 -28 116 172 71 -18 74zm-222 -172l23 -95 -331 -29 308 124zm334 -312l-716 -133 10 -55 506 -75 -475 -89 12 -67 716 134 -10 51 -519 75 488 91 -12 68zm-787 -350c-2,13 -8,24 -17,33 -10,9 -19,17 -27,25 -9,7 -14,16 -16,27 -2,8 0,15 4,20 5,5 14,8 27,11l-8 43c-17,-3 -33,-8 -47,-14 -14,-6 -24,-14 -31,-24 -7,-10 -9,-22 -7,-36 3,-12 8,-22 17,-31 9,-8 18,-17 27,-25 8,-8 14,-17 16,-27 1,-8 0,-14 -5,-19 -5,-5 -14,-9 -28,-11l8 -43c18,3 34,8 48,13 14,6 25,13 32,22 8,10 10,21 7,36zm880 -280c-3,39 -16,70 -37,92 -21,22 -50,36 -86,43 -37,7 -79,8 -127,4l-274 -25c-48,-4 -88,-13 -122,-27 -33,-13 -58,-32 -74,-57 -16,-25 -22,-57 -19,-97 4,-39 16,-70 36,-91 21,-22 49,-36 84,-43 35,-8 76,-9 124,-5l275 25c47,5 88,13 122,27 35,14 60,33 78,58 17,24 24,57 20,96zm-79 -7c2,-22 -2,-39 -12,-51 -11,-12 -25,-21 -45,-26 -20,-6 -43,-10 -70,-12l-317 -29c-27,-3 -50,-3 -70,-1 -20,2 -35,8 -47,19 -11,10 -18,26 -20,47 -2,22 2,39 11,51 10,12 24,21 43,27 19,5 42,9 69,12l317 29c27,2 51,2 71,0 20,-2 37,-8 49,-18 12,-11 19,-27 21,-48zm109 -475c-1,34 -11,62 -29,83 -19,22 -45,38 -77,49 -32,10 -69,16 -111,16l-22 -73c26,0 51,-3 75,-7 24,-4 44,-12 60,-23 16,-11 24,-27 24,-48 1,-21 -6,-37 -20,-49 -14,-11 -35,-17 -63,-18 -33,-1 -59,4 -80,15 -20,12 -41,26 -62,44l-111 95c-22,18 -45,32 -70,40 -25,9 -56,12 -93,11 -53,-2 -94,-16 -122,-41 -29,-26 -42,-60 -41,-102 1,-24 5,-44 13,-61 9,-18 21,-32 37,-43 16,-12 35,-20 59,-26 24,-7 52,-10 84,-12l21 71c-24,0 -46,2 -66,6 -21,4 -37,11 -50,21 -12,11 -19,26 -20,46 0,20 6,37 19,48 13,12 33,18 59,19 22,1 41,-1 55,-7 15,-5 30,-15 45,-28l111 -95c25,-22 54,-40 88,-56 34,-16 73,-23 119,-21 36,1 67,8 92,21 26,13 45,30 58,51 13,22 19,46 18,74z"/>
   <path id="1" class="fil2 str0" d="M9308 6067l-155 -711 116 -25c38,-8 71,-9 99,-2 27,8 50,24 68,49 18,25 32,60 42,105 6,28 9,53 10,77 0,23 -4,44 -11,62 -7,18 -18,32 -33,43l159 338 -77 17 -148 -317 -62 13 72 334 -80 17zm-8 -422l31 -6c22,-5 40,-13 52,-23 13,-10 21,-24 24,-43 3,-18 1,-42 -6,-73 -9,-41 -22,-70 -38,-86 -16,-16 -43,-20 -79,-12l-35 8 51 235zm622 255c-40,13 -74,13 -102,0 -28,-12 -52,-36 -72,-69 -19,-34 -37,-75 -52,-124l-149 -459 75 -24 149 464c10,29 20,56 32,79 11,24 24,41 39,52 16,10 34,12 56,5 22,-7 36,-19 42,-37 6,-18 6,-39 2,-65 -5,-25 -12,-53 -22,-83l-150 -463 74 -24 149 459c15,49 25,92 29,131 4,39 -2,72 -16,98 -15,27 -43,47 -84,60zm324 -115l-284 -670 74 -33 333 498 -143 -582 73 -32 304 661 -61 27 -219 -481 123 524 -43 18 -303 -443 207 486 -61 27zm535 -250l-354 -636 118 -66c23,-13 45,-21 66,-24 20,-3 40,-1 59,5 18,7 36,19 53,36 16,17 32,39 47,67 15,26 25,50 30,72 6,22 6,41 1,58 -4,17 -14,32 -29,45 23,-6 46,-5 66,1 20,7 40,20 58,38 18,18 36,43 52,73 16,27 27,54 34,79 8,25 10,49 8,70 -2,22 -9,42 -20,60 -12,18 -30,33 -52,46l-137 76zm36 -104l48 -26c32,-18 48,-39 49,-64 0,-25 -11,-58 -34,-99 -15,-27 -30,-47 -46,-62 -16,-15 -32,-24 -50,-26 -17,-2 -37,3 -58,14l-42 24 133 239zm-171 -307l43 -23c20,-12 34,-24 41,-37 8,-14 9,-29 5,-48 -4,-18 -13,-40 -27,-65 -16,-29 -31,-48 -46,-58 -14,-9 -30,-11 -47,-6 -17,5 -38,15 -62,28l-18 10 111 199zm686 101c-34,21 -66,29 -96,26 -30,-4 -59,-18 -87,-43 -27,-24 -54,-57 -79,-98l-147 -233c-26,-40 -43,-78 -53,-113 -10,-34 -9,-66 1,-94 10,-27 32,-52 65,-73 34,-21 65,-30 95,-27 29,4 57,17 84,40 27,24 54,55 79,96l148 234c25,40 43,78 53,113 10,36 10,68 1,97 -9,28 -31,53 -64,75zm-43 -68c19,-12 29,-25 33,-40 3,-16 1,-33 -6,-52 -7,-19 -18,-40 -33,-63l-170 -269c-14,-23 -28,-42 -42,-56 -13,-15 -28,-23 -43,-26 -15,-3 -31,1 -50,13 -18,11 -29,25 -33,39 -4,15 -3,32 4,51 7,18 18,39 33,62l170 269c14,23 28,42 42,57 14,15 29,24 44,27 16,4 33,0 51,-12zm554 -324l-374 -636 60 -51 566 475 -60 50 -138 -123 -92 77 97 158 -59 50zm-76 -271l74 -63 -249 -218 175 281zm678 -294l-544 -483 54 -61 490 434 100 -112 54 48 -154 174zm362 -403c-25,31 -52,49 -82,56 -30,6 -62,2 -96,-12 -34,-15 -70,-37 -107,-67l-215 -172c-38,-30 -67,-60 -87,-90 -20,-29 -30,-59 -30,-89 0,-29 13,-60 38,-91 25,-30 51,-49 80,-56 29,-6 60,-3 94,11 33,13 68,34 105,64l216 173c37,30 66,60 87,90 21,30 32,61 33,91 0,30 -12,61 -36,92zm-63 -50c14,-17 20,-34 18,-49 -2,-16 -9,-31 -22,-47 -14,-16 -31,-32 -52,-49l-248 -199c-22,-17 -41,-30 -58,-39 -18,-9 -34,-13 -50,-11 -15,2 -29,12 -43,29 -13,17 -19,33 -18,48 1,16 8,31 20,46 13,16 30,32 51,48l249 200c21,17 40,30 58,40 19,9 35,13 51,11 16,-2 31,-11 44,-28zm339 -348c-19,29 -42,47 -69,56 -28,9 -58,9 -91,2 -33,-8 -67,-23 -103,-44l19 -74c23,13 45,24 68,33 23,9 44,13 63,11 19,-1 34,-10 46,-28 11,-17 14,-35 8,-52 -6,-17 -21,-33 -44,-48 -28,-18 -53,-28 -77,-29 -23,-1 -48,1 -75,5l-144 23c-29,5 -56,4 -81,-2 -26,-6 -54,-19 -85,-39 -44,-29 -72,-62 -83,-99 -11,-37 -5,-73 18,-108 13,-20 27,-35 43,-45 16,-11 34,-17 54,-18 19,-2 41,1 64,8 24,8 50,19 77,34l-18 71c-21,-12 -41,-21 -60,-29 -19,-7 -37,-10 -53,-7 -17,2 -30,12 -41,29 -11,17 -15,33 -9,50 5,17 18,33 40,47 19,13 36,20 51,23 15,3 33,3 53,0l144 -24c33,-6 67,-6 104,-2 37,4 75,19 113,44 30,19 53,41 68,66 15,24 22,49 22,74 0,25 -7,49 -22,72zm393 -674c-14,30 -35,51 -63,61 -28,11 -61,13 -98,7 -37,-6 -76,-19 -116,-37l-223 -103c-43,-20 -80,-42 -112,-66 -32,-24 -54,-51 -66,-79 -13,-29 -11,-60 4,-94 13,-27 30,-48 51,-61 22,-13 47,-20 75,-19 29,1 61,9 95,24 1,1 3,1 5,2 2,0 3,1 5,2l-33 71c-32,-15 -58,-22 -79,-21 -21,0 -36,12 -47,35 -6,13 -6,26 0,40 6,14 18,28 37,42 18,14 44,29 76,44l101 46c-11,-13 -17,-28 -20,-45 -2,-17 1,-35 10,-54 13,-29 32,-48 55,-58 24,-9 51,-11 83,-5 32,6 67,18 106,36 39,18 74,40 102,63 29,24 48,50 59,78 10,29 8,59 -7,91zm-72 -34c7,-16 7,-30 0,-44 -7,-14 -19,-27 -36,-40 -17,-12 -36,-23 -58,-33 -26,-12 -51,-22 -74,-30 -23,-9 -43,-12 -60,-10 -17,3 -31,14 -40,34 -4,10 -6,19 -6,29 1,10 4,20 8,28 4,9 9,17 15,24l99 46c22,10 44,18 64,23 21,5 39,5 54,2 15,-4 27,-13 34,-29zm258 -400c-13,30 -31,52 -57,65 -25,13 -55,18 -88,16 -34,-3 -70,-12 -109,-27l-290 -118c-40,-16 -72,-35 -98,-56 -26,-22 -43,-46 -52,-73 -8,-26 -6,-55 6,-87 13,-31 32,-53 57,-66 24,-13 53,-18 87,-15 33,2 70,12 109,28l291 118c38,15 71,34 97,56 26,22 43,46 52,72 9,27 8,56 -5,87zm-73 -30c7,-17 6,-33 -3,-46 -9,-14 -22,-26 -40,-37 -17,-12 -36,-21 -57,-30l-292 -118c-22,-9 -43,-16 -63,-20 -21,-5 -38,-5 -54,-1 -15,4 -26,14 -33,32 -7,17 -7,33 1,47 8,13 21,26 39,36 18,11 38,21 59,30l293 119c20,8 41,14 61,19 21,4 39,4 55,0 16,-4 27,-15 34,-31zm279 -579l-679 -291 19 -77 737 49 -18 75 -185 -17 -28 116 172 71 -18 74zm-222 -172l23 -95 -331 -29 308 124zm334 -312l-716 -133 10 -55 506 -75 -475 -89 12 -67 716 134 -10 51 -519 75 488 91 -12 68zm-787 -350c-2,13 -8,24 -17,33 -10,9 -19,17 -27,25 -9,7 -14,16 -16,27 -2,8 0,15 4,20 5,5 14,8 27,11l-8 43c-17,-3 -33,-8 -47,-14 -14,-6 -24,-14 -31,-24 -7,-10 -9,-22 -7,-36 3,-12 8,-22 17,-31 9,-8 18,-17 27,-25 8,-8 14,-17 16,-27 1,-8 0,-14 -5,-19 -5,-5 -14,-9 -28,-11l8 -43c18,3 34,8 48,13 14,6 25,13 32,22 8,10 10,21 7,36zm880 -280c-3,39 -16,70 -37,92 -21,22 -50,36 -86,43 -37,7 -79,8 -127,4l-274 -25c-48,-4 -88,-13 -122,-27 -33,-13 -58,-32 -74,-57 -16,-25 -22,-57 -19,-97 4,-39 16,-70 36,-91 21,-22 49,-36 84,-43 35,-8 76,-9 124,-5l275 25c47,5 88,13 122,27 35,14 60,33 78,58 17,24 24,57 20,96zm-79 -7c2,-22 -2,-39 -12,-51 -11,-12 -25,-21 -45,-26 -20,-6 -43,-10 -70,-12l-317 -29c-27,-3 -50,-3 -70,-1 -20,2 -35,8 -47,19 -11,10 -18,26 -20,47 -2,22 2,39 11,51 10,12 24,21 43,27 19,5 42,9 69,12l317 29c27,2 51,2 71,0 20,-2 37,-8 49,-18 12,-11 19,-27 21,-48zm109 -475c-1,34 -11,62 -29,83 -19,22 -45,38 -77,49 -32,10 -69,16 -111,16l-22 -73c26,0 51,-3 75,-7 24,-4 44,-12 60,-23 16,-11 24,-27 24,-48 1,-21 -6,-37 -20,-49 -14,-11 -35,-17 -63,-18 -33,-1 -59,4 -80,15 -20,12 -41,26 -62,44l-111 95c-22,18 -45,32 -70,40 -25,9 -56,12 -93,11 -53,-2 -94,-16 -122,-41 -29,-26 -42,-60 -41,-102 1,-24 5,-44 13,-61 9,-18 21,-32 37,-43 16,-12 35,-20 59,-26 24,-7 52,-10 84,-12l21 71c-24,0 -46,2 -66,6 -21,4 -37,11 -50,21 -12,11 -19,26 -20,46 0,20 6,37 19,48 13,12 33,18 59,19 22,1 41,-1 55,-7 15,-5 30,-15 45,-28l111 -95c25,-22 54,-40 88,-56 34,-16 73,-23 119,-21 36,1 67,8 92,21 26,13 45,30 58,51 13,22 19,46 18,74z"/>
  </g>
 </g>
</svg>
